<svg width="11.656250" height="11.656250" viewBox="0 0 11.6562 11.6562" fill="none" xmlns="http://www.w3.org/2000/svg" xmlns:xlink="http://www.w3.org/1999/xlink" id="search">

	<defs/>
	<path id="Vector" d="M2.21 6.46C2.8 7.05 3.51 7.34 4.34 7.34C5.17 7.34 5.88 7.05 6.46 6.46C7.05 5.88 7.34 5.17 7.34 4.34C7.34 3.51 7.05 2.8 6.46 2.21C5.88 1.63 5.17 1.34 4.34 1.34C3.51 1.34 2.8 1.63 2.21 2.21C1.63 2.8 1.34 3.51 1.34 4.34C1.34 5.17 1.63 5.88 2.21 6.46ZM8.34 7.34L11.65 10.65L10.65 11.65L7.34 8.34L7.34 7.81L7.15 7.62C6.36 8.31 5.42 8.65 4.34 8.65C3.13 8.65 2.1 8.23 1.25 7.4C0.41 6.57 0 5.55 0 4.34C0 3.13 0.41 2.11 1.25 1.28C2.1 0.42 3.13 0 4.34 0C5.55 0 6.57 0.42 7.4 1.28C8.23 2.11 8.65 3.13 8.65 4.34C8.65 4.78 8.55 5.28 8.34 5.84C8.13 6.38 7.89 6.82 7.62 7.15L7.81 7.34L8.34 7.34Z" fill="currentColor" fill-opacity="1.000000" fill-rule="nonzero"/>
</svg>
